/* XPM */
static char *result[] = {
/* columns rows colors chars-per-pixel */
"16 16 7 1 ",
"  c #32373C",
". c #8F563B",
"X c #37946E",
"o c #D9A066",
"O c #86D18E",
"+ c #EEC39A",
"@ c None",
/* pixels */
"@@@@@@@@@@@@@@@@",
"@@@@@     @@@@@@",
"@@@@  OXO  @@@@@",
"@@@ XXXOXXX @@@@",
"@@  XXXXXXX  @@@",
"@@ XXX X X X @@@",
"@@  XX    XX  @@",
"@ o XXXXXXXX o @",
"@ o XX XXXXX o @",
"@@ . XX XXX .  @",
"@   .      . + @",
"@ +         X @@",
"@@ X  XXXX    @@",
"@@@   XXXXX  @@@",
"@@@ ..  XXXX @@@",
"@@@         @@@@"
};
