/* XPM */
static char *result[] = {
/* columns rows colors chars-per-pixel */
"16 16 7 1 ",
"  c #32373C",
". c #8F563B",
"X c #37946E",
"o c #D9A066",
"O c #86D18E",
"+ c #EEC39A",
"@ c None",
/* pixels */
"@@@@@@@@@@@@@@@@",
"@@@@      @@@@@@",
"@@@ X XXXX @@@@@",
"@@  XXXXXXX @@@@",
"@ XXXXXXOXO  @@@",
"@@ XX XOX XO @@@",
"@@ XXX X     @@@",
"@@ X    o + @@@@",
"@  X + o+X++ @@@",
"@@   o ++++  @@@",
"@@@  .oooo  @@@@",
"@@@  XX    + @@@",
"@@@ XXXXX ++ @@@",
"@@@      .  @@@@",
"@@@@   .. @@@@@@",
"@@@@@     @@@@@@"
};
