/* XPM */
static char *result[] = {
/* columns rows colors chars-per-pixel */
"16 16 24 1 ",
"  c #32373C",
". c #45283C",
"X c #5C596A",
"o c #5B5B6D",
"O c #5B5A6E",
"+ c #5C5B6E",
"@ c #595C73",
"# c #595D74",
"$ c #585D75",
"% c #5A5D74",
"& c #575E78",
"* c #575E7A",
"= c #565F7A",
"- c #565F7B",
"; c #575F7B",
": c #565F7C",
"> c #55607C",
", c #55607D",
"< c #A43434",
"1 c #37946E",
"2 c #D9578A",
"3 c #B0E6B6",
"4 c #E8B8F0",
"5 c None",
/* pixels */
"5555555555555555",
"5555555555555555",
"555555555&*55555",
"55555555>..35555",
"5555555>..1 3555",
"555555O..  1 355",
"5555,,..-.>   35",
"555=.......,3355",
"55o.2.<2.22.,555",
"5X.24<222.22.%55",
"5$.22222<.2<.+55",
"5@.<222<<.<.&555",
"55#.<<<<...;5555",
"555-....>::55555",
"5555-@@X55555555",
"5555555555555555"
};
