/* XPM */
static char *result[] = {
/* columns rows colors chars-per-pixel */
"16 16 8 1 ",
"  c #32373C",
". c #45283C",
"X c #A43434",
"o c #37946E",
"O c #D9578A",
"+ c #B0E6B6",
"@ c #E8B8F0",
"# c None",
/* pixels */
"################",
"################",
"################",
"#########..+####",
"########..o +###",
"#######..  o +##",
"######..#.#   +#",
"####.......#++##",
"###.O.XO.OO.####",
"##.O@XOOO.OO.###",
"##.OOOOOX.OX.###",
"##.XOOOXX.X.####",
"###.XXXX...#####",
"####....########",
"################",
"################"
};
