/* XPM */
static char *result[] = {
/* columns rows colors chars-per-pixel */
"16 16 2 1 ",
"  c #2E2C3B",
". c #3E415F",
/* pixels */
"                ",
"        .       ",
"  ..        .   ",
"  ..            ",
"                ",
"       ....     ",
"       ....  .. ",
"       ....  .. ",
"    .  ....     ",
"                ",
"                ",
"                ",
"            ... ",
" ..   .     ... ",
" ..         ... ",
"                "
};
