/* XPM */
static char *result[] = {
/* columns rows colors chars-per-pixel */
"16 16 3 1 ",
"  c #B54131",
". c #C4651C",
"X c #F3C220",
/* pixels */
".XX.XXX.X.XX.XX.",
"................",
"...X.....X....X.",
"X.. ..X.. ..X. .",
" ..... ..... ...",
"   .  . .  .   .",
"                ",
"                ",
"                ",
"                ",
"                ",
"                ",
"                ",
"                ",
"                ",
"                "
};
