/* XPM */
static char *result[] = {
/* columns rows colors chars-per-pixel */
"16 16 6 1 ",
"  c #3B1115",
". c #893927",
"X c #DD8727",
"o c #E6C618",
"O c white",
"+ c None",
/* pixels */
"++++++++++++++++",
"++++++++++++++++",
"++XX++++++++++++",
"++XOX+++++++++++",
"+XOooX++++++++++",
"+XoXXoX+++++++++",
"++.X..o.++++++++",
"+++.++.X.XXX++++",
"+++++++.XOoo.+++",
"+++++++XO..Xo.++",
"+++++++Xo.XoX.++",
"+++++++XoXooX.++",
"++++++++.oXX. ++",
"+++++++++... +++",
"++++++++++++++++",
"++++++++++++++++"
};
