/* XPM */
static char *_d2be2a4934b48d3fff32258aab4d81a0Ebry1qmDg8VmGTa[] = {
/* columns rows colors chars-per-pixel */
"96 160 17 1 ",
"  c None",
". c #2E2C3B",
"X c #3E415F",
"o c #61407A",
"O c #55607D",
"+ c #B54131",
"@ c #C4651C",
"# c #249337",
"$ c #56BE44",
"% c #F3C220",
"& c #C6DE78",
"* c #3B77A6",
"= c #8F3DA7",
"- c #EA619D",
"; c #2AA4AA",
": c #41DE95",
"> c white",
/* pixels */
" ..............................................  .............................................. ",
".--=--=-==.--=-=---=--=-==.--=-=---=--=-==.--=-..--=--=-==.--=-=---=--=-==.--=-=---=--=-==.--=-.",
".-=o=ooooo.-=o=ooooooooooo.-=o=ooooooooooo.-=o=..-=o=ooooo.-=o=ooooooooooo.-=o=ooooooooooo.-=o=.",
".=o=oooooo.=o=oooooooooooo.=o=oooooooooooo.=o=o..=o=oooooo.=o=oooooooooooo.=o=oooooooooooo.=o=o.",
".-=oooooo=.-=oooooooooooo=.-=oooooooooooo=.-=oo..-=oooooo=.-=oooooooooooo=.-=oooooooooooo=.-=oo.",
".=oooooooo.=oooooooooooooo.=oooooooooooooo.=ooo..=oooooooo.=oooooooooooooo.=oooooooooooooo.=ooo.",
".-ooooooo=.-ooooooooooooo=.-ooooooooooooo=.-ooo..-ooooooo=.-ooooooooooooo=.-ooooooooooooo=.-ooo.",
".=o=o==o=..=ooooo=o==o====.=ooooo=o==o===..=ooo..=o=o==o=..=ooooo=o==o====.=ooooo=o==o===..=ooo.",
"................................................................................................",
".--=--..-=---=--=-====.--=--o-===-====..-=--o-=..--=--..-=---=--=-====..................-=--o-=.",
".-oooo.-=o=ooooooooooo.-=o=ooooooooooo.-=o=oooo..-oooo.-=o=ooooooooooo.................-=o=oooo.",
".=oooo.=o=oooooooooooo.=o=oooooooooooo.=o=ooooo..=oooo.=o=oooooooooooo.................=o=ooooo.",
".-ooo=.-=oooooooooooo=.-=oooooooooooo=.-=ooooo=..-ooo=.-=oooooooooooo=.................-=ooooo=.",
".=oooo.=oooooooooooooo.=oooooooooooooo.=ooooooo..=oooo.=oooooooooooooo.................=ooooooo.",
".-ooo=.-ooooooooooooo=.-ooooooooooooo=.-oooooo=..-ooo=.-ooooooooooooo=.................-oooooo=.",
".=oo==.=oooo=o==o=o===..oooo=o==o=o===.=ooo=o==..=oo==.=oooo=o==o=o===.................=ooo=o==.",
"................................................................................................",
".--=--=-==.--=-=---=--=-==.--=-=---=--=-==.--=-..--=--=-==.................--=-=---=--=-==.--=-.",
".-=o=ooooo.-=o=ooooooooooo.-=o=ooooooooooo.-=o=..-=o=ooooo.................-=o=ooooooooooo.-=o=.",
".=o=oooooo.=o=oooooooooooo.=o=oooooooooooo.=o=o..=o=oooooo.................=o=oooooooooooo.=o=o.",
".-=oooooo=.-=oooooooooooo=.-=oooooooooooo=.-=oo..-=oooooo=.................-=oooooooooooo=.-=oo.",
".=oooooooo.=oooooooooooooo.=oooooooooooooo.=ooo..=oooooooo.................=oooooooooooooo.=ooo.",
".-ooooooo=.-ooooooooooooo=.-ooooooooooooo=.-ooo..-ooooooo=.................-ooooooooooooo=.-ooo.",
".=o=o==o=..=ooooo=o==o====.=ooooo=o==o===..=ooo..=o=o==o=..................=ooooo=o==o===..=ooo.",
"................................................................................................",
".--=--..-=---=--=-====.--=--o-===-====..-=--o-=..--=--..-=---=--=-====.--=--o-===-====..-=--o-=.",
".-oooo.-=o=ooooooooooo.-=o=ooooooooooo.-=o=oooo..-oooo.-=o=ooooooooooo.-=o=ooooooooooo.-=o=oooo.",
".=oooo.=o=oooooooooooo.=o=oooooooooooo.=o=ooooo..=oooo.=o=oooooooooooo.=o=oooooooooooo.=o=ooooo.",
".-ooo=.-=oooooooooooo=.-=oooooooooooo=.-=ooooo=..-ooo=.-=oooooooooooo=.-=oooooooooooo=.-=ooooo=.",
".=oooo.=oooooooooooooo.=oooooooooooooo.=ooooooo..=oooo.=oooooooooooooo.=oooooooooooooo.=ooooooo.",
".-ooo=.-ooooooooooooo=.-ooooooooooooo=.-oooooo=..-ooo=.-ooooooooooooo=.-ooooooooooooo=.-oooooo=.",
".=oo==.=oooo=o==o=o===.=oooo=o==o=o===.=ooo=o==..=oo==.=oooo=o==o=o===.=oooo=o==o=o===.=ooo=o==.",
" ..............................................                  .............................. ",
".--=--=-==.--=-=---=--=-==.--=-=---=--=-==.--=-.                .--=--=-==.--=-=---=--=-==.--=-.",
".-=o=ooooo.-=o=ooooooooooo.-=o=ooooooooooo.-=o=.                .-=o=ooooo.-=o=ooooooooooo.-=o=.",
".=o=oooooo.=o=oooooooooooo.=o=oooooooooooo.=o=o.                .=o=oooooo.=o=oooooooooooo.=o=o.",
".-=oooooo=.-=oooooooooooo=.-=oooooooooooo=.-=oo.      ....      .-=oooooo=.-=oooooooooooo=.-=oo.",
".=oooooooo.=oooooooooooooo.=oooooooooooooo.=ooo.     .>>>>.     .=oooooooo.=oooooooooooooo.=ooo.",
".-ooooooo=.-ooooooooooooo=.-ooooooooooooo=.-ooo.    .>>%%%@.    .-ooooooo=.-ooooooooooooo=.-ooo.",
".=o=o==o=..=ooooo=o==o====.=ooooo=o==o===..=ooo.    .>%%%%@.    .=o=o==o=..=ooooo=o==o===..=ooo.",
" ..............................................     .>%%%%@.    ................................",
"      ..-=---=--=...        ..--=-=-=..             .>%%%%@.    .--=--..-=---=--=-====..-=--o-=.",
"      .-=o=ooooooo.          .-=o=oooo.             .>%%%@@.    .-oooo.-=o=ooooooooooo.-=o=oooo.",
"      .=o=oooooooo.          .=o=ooooo.              .@@@@.     .=oooo.=o=oooooooooooo.=o=ooooo.",
"      .-=oooooooo=.          .-=ooooo=.               ....      .-ooo=.-=oooooooooooo=.-=ooooo=.",
"      .-ooooooooo=.          .-oooooo=.                         .=oooo.=oooooooooooooo.=ooooooo.",
"       .oooo=o===.            .oo=o==.                          .-ooo=.-ooooooooooooo=.-oooooo=.",
"        .........              ......                           .=oo==.=oooo=o==o=o===.=ooo=o==.",
" .............. ............................................... ................................",
".--=--=-==.--=-.---=--=-==.--=-=.--=--=-==.--=-..%%%@%%@%%%@%%%..--=--=-==.--==----=--=-==.--=-.",
".-=o=ooooo.-=o=.oooooooooo.-=o=o.-=o=ooooo.-=o=..%%@@@@@@@@@@@@..-=o=ooooo.-=o=ooooooooooo.-=o=.",
".=o=oooooo.=o=o.oooooooooo.=o=oo.=o=oooooo.=o=o..%.@@@@@@@@@@.@..=o=oooooo.=o=oooooooooooo.=o=o.",
".-=oooooo=.-=oo.ooooooooo=.-=ooo.-=oooooo=.-=oo..@@@@@@@@@@@@@@..-=oooooo=.-=oooooooooooo=.-=oo.",
".=oooooooo.=ooo.oooooooooo.=oooo.=oooooooo.=ooo..%@@@@@@@@@@@@@..=oooooooo.=oooooooooooooo.=ooo.",
".-ooooooo=.-ooo.ooooooooo=.-oooo.-ooooooo=.-ooo................ .-ooooooo=.-ooooooooooooo=.-ooo.",
".=o=o====..=ooo.o=o==o====.=oooo.=o=o====..=ooo. .%%%%%%.       .=o=o====..=ooooo=o==o====.=ooo.",
".................................................%@@@@@.        ................................",
".--=--..-=--o-=.=-====.--=--o-==.--=--..-=--o-=..@.@@@.         .--=--..-=--==-==-====.--=--o-=.",
".-oooo.-=o=oooo.oooooo.-=o=ooooo.-oooo.-=o=oooo..@@@@.          .-oooo.-=o=ooooooooooo.-=o=oooo.",
".=oooo.=o=ooooo.oooooo.=o=oooooo.=oooo.=o=ooooo..@@@.           .=oooo.=o=ooooooooooo=.=o=oooo=.",
".-ooo=.-=ooooo=.oooooo.=oooooooo.-ooo=.-=ooooo=..@@.            .-ooo=.-=ooooooooooooo.=ooooooo.",
".=oooo.=ooooooo.ooooo=.-oooooooo.-ooo=.-oooooo=..@.             .-ooo=.-ooooooooooooo=.-oooooo=.",
".-ooo=.-oooooo=.o=o===.=oooo=o==.=oo==.=ooo=o==...              .=oo==.=oooooo=o==o===.=oo==o==.",
".=oo==.=ooo=o==................. .............. .                .............................. ",
"................XXXXXXXXXXXXXXXXXXXXXXXXXXXXXXXX ............... .............................. ",
".--=--=-==.--=-.XXXXXXXXXXXXXXXXXXXXXXXXOXXXXXXX.%%%%@%@%%%@%%%..--=--=-==.--==----=--=-==.--=-.",
".-=o=ooooo.-=o=.XXXXXXXXXXXXXXXXXXOOXXXXXXXXOXXX.%%@@@@@@@@@@@@..-=o=ooooo.-=o=ooooooooooo.-=o=.",
".=o=oooooo.=o=o.XXXXXXXXXXXXXXXXXXOOXXXXXXXXXXXX.%.@@@@@@@@@@.@..=o=oooooo.=o=oooooooooooo.=o=o.",
".-=oooooo=.-=oo.XXXXXXXXXXXXXXXXXXXXXXXXXXXXXXXX.%@@@@@@@@@@@@@..-=oooooo=.-=oooooooooooo=.-=oo.",
".=oooooooo.=ooo.XXXXXXXXXXXXXXXXXXXXXXXOOOOXXXXX.%@@@@@@@@@@@@@..=oooooooo.=oooooooooooooo.=ooo.",
".-ooooooo=.-ooo.XXXXXXXXXXXXXXXXXXXXXXXOOOOXXOOX ................-ooooooo=.-ooooooooooooo=.-ooo.",
".=o=o====..=ooo.XXXXXXXXXXXXXXXXXXXXXXXOOOOXXOOX       .%%%%%%. .=o=o====..=ooooo=o==o====.=ooo.",
"................XXXXXXXXXXXXXXXXXXXXOXXOOOOXXXXX        .@@@@@%.................................",
".--=--..-=--o-=.XXXXXXXXXXXXXXXXXXXXXXXXXXXXXXXX         .@@.@@..--=--..-=--==-==-====.--=--o-=.",
".-oooo.-=o=oooo.XXXXXXXXXXXXXXXXXXXXXXXXXXXXXXXX          .@@@@..-oooo.-=o=ooooooooooo.-=o=oooo.",
".=oooo.=o=ooooo.XXXXXXXXXXXXXXXXXXXXXXXXXXXXXXXX           .@@@..=oooo.=o=ooooooooooo=.=o=oooo=.",
".-ooo=.-=ooooo=.XXXXXXXXXXXXXXXXXXXXXXXXXXXXOOOX            .@@..-ooo=.-=ooooooooooooo.=ooooooo.",
".=oooo.=ooooooo.XXXXXXXXXXXXXXXXXOOXXXOXXXXXOOOX             .@..-ooo=.-ooooooooooooo=.-oooooo=.",
".-ooo=.-oooooo=.XXXXXXXXXXXXXXXXXOOXXXXXXXXXOOOX              ...=oo==.=oooooo=o==o===.=oo==o==.",
".=oo==.=ooo=o==.XXXXXXXXXXXXXXXXXXXXXXXXXXXXXXXX               . .............................. ",
" ..............                                 ................................................",
".--=--=-==.--=-.                                .%%%@%%@%%%@%%%%.%%%%@%%@%%%@%%.%%%%@%%@%%%@%%%.",
".-=o=ooooo.-=o=.                                .%%@@@@@@@@@@@@@.%%@@@@@@@@@@@@.%%@@@@@@@@@@@@@.",
".=o=oooooo.=o=o.                                .%.@@@@@@@@@@@@@.%.@@@@@@@@@@.@.%@.@@@@@@@@@@.@.",
".-=oooooo=.-=oo.                                .@@@@@@@@@@@@@@@.%@@@@@@@@@@@@@.%@@@@@@@@@@@@@@.",
".=oooooooo.=ooo.                                .%@@@@@@@@@@@@@@.%@@@@@@@@@@@@@.%@@@@@@@@@@@@@@.",
".-ooooooo=.-ooo.                                ................................................",
".=o=o====..=ooo.                                 .%%%%%%.                              .%%%%%%. ",
"................                                .%@@@@@.                                .@@@@@%.",
".--=--..-=--o-=.                                .%@.@@.                                  .@@.@@.",
".-oooo.-=o=oooo.                                .@@@@.                                    .@@@%.",
".=oooo.=o=ooooo.                                .%@@.                                      .@@%.",
".-ooo=.-=ooooo=.               ..               .@@.                                        .@@.",
".-ooo=.-oooooo=.              ....              .@.                                          .@.",
".=oo==.=ooo=o==.             ......             ..                                            ..",
" ..............       . .. .......... .. .      .                                              .",
"  .--=-==o=oo.        *                          .............. ................ .............. ",
"  .--=-==o=oo.        :                         .%%%%@%%@%%%@%%..%%%%@%%@%%%%@%%.%%%%@%%@%%%@%%.",
"  .--=-==o=oo.       : *                        .%.@@@@@@@@@@.@..%%@@@@@@@@@@@@@.%.@@@@@@@@@@.@.",
"  .--=-==o=oo.       : *                        .%@@@@@@@@@@@@@..%.@@@@@@@@@@@.@.%@@@@@@@@@@@@@.",
"  .--=-==o=oo.       : *                        .................%@@@@@@@@@@@@@@................",
"  .--=-==o=oo.        *                         .%%%.      .%%%..%@@@@@@@@@@@@@@.%%%.%%.%%%.%%%.",
"  .--=-==o=oo.        :                         .%%@.      .%%@..................%%@.%@.%%@.%%@.",
"  .--=-==o=oo.       : *                        .%@@.      .%@@.                .%@@.%@.%@@.%@@.",
"  .--=-==o=oo.       : *            .       .   .%@@.      .%@@.                .%@@.%@.%@@.%@@.",
"  .--=-==o=oo.       : *           .;.     .;.  .%@@.      .%@@.                .%@@.%@.%@@.%@@.",
"  .--=-==o=oo.        *            .;.     .;.  .%@@.      .%@@.                .%@@.%@.%@@.%@@.",
"  .--=-==o=oo.        :           .:;*.   .:;*. ................                ................",
" .--oooooooooo.      : *          .:;*.   .:;*. .%%%%@%%@%%%@%%.                .%%%%@%%@%%%@%%.",
".--=-========oo.     : *         .:;;;*. .:;;;*..%.@@@@@@@@@@.@.                .%.@@@@@@@@@@.@.",
".--=-========oo.     : *         .:;;;*. .:;;;*..%@@@@@@@@@@@@@.                .%@@@@@@@@@@@@@.",
" ..............       *         .:;;;;;*.:;;;;;* ..............                  .............. ",
"................................          ............           ..............   .--=-==o=oo.  ",
"........................X.......             ......             .--=-========oo.  .--=-==o=oo.  ",
"..................XX........X...              ....              .--=-========oo.  .--=-==o=oo.  ",
"..................XX............               ..                .--oooooooooo.   .--=-==o=oo.  ",
"................................                                  .--=-==o=oo.    .--=-==o=oo.  ",
".......................XXXX.....               ..                 .--=-==o=oo.    .--=-==o=oo.  ",
".......................XXXX..XX.               ..                 .--=-==o=oo.    .--=-==o=oo.  ",
".......................XXXX..XX.                                  .--=-==o=oo.    .--=-==o=oo.  ",
"....................X..XXXX.....               ..                 .--=-==o=oo.    .--=-==o=oo.  ",
"................................                                  .--=-==o=oo.    .--=-==o=oo.  ",
"................................                                  .--=-==o=oo.    .--=-==o=oo.  ",
"................................                                  .--=-==o=oo.    .--=-==o=oo.  ",
"............................XXX.                                  .--=-==o=oo.    .--=-==o=oo.  ",
".................XX...X.....XXX.                                  .--=-==o=oo.    .--=-==o=oo.  ",
".................XX.........XXX.                                  .--=-==o=oo.    .--=-==o=oo.  ",
"................................                                  .--=-==o=oo.    .--=-==o=oo.  ",
" .............. .                              ..:;;;;;*.:;;;;;*                  .--=-==o=oo.  ",
".--=---=--=-===.:..                          ..: .:;;;*. .:;;;*.                  .--=-==o=oo.  ",
".-=o=oooooooooo.;::..                      ..::; .:;;;*. .:;;;*.                  .--=-==o=oo.  ",
".=o=oooooooooo=.;;;::..                  ..::;;;  .:;*.   .:;*.                   .--=-==o=oo.  ",
".-=oooooooooooo.;;;;;;;.                .;;;;;;;  .:;*.   .:;*.    .   ... ..     .--=-==o=oo.  ",
".-oooooooooooo=.;;;**..                  ..**;;;   .;.     .;.    .-. .==o.oo.    .--=-==o=oo.  ",
".-oooooooooooo=.;**..                      ..**;   .;.     .;.    .--.-==o=oo.    .--=-==o=oo.  ",
".=ooooooooooooo.*..                          ..*    .       .     .--=-==o=oo.    .--=-==o=oo.  ",
".-oooooooooooo=..                              .                  .--=-==o=oo.    .--=-==o=oo.  ",
".-oooooooooooo=.:..                          ..:                  .--=-==o=oo.    .--=-==o=oo.  ",
".=oooooooooooo=.;::..                      ..::;                  .--=-==o=oo.    .--=-==o=oo.  ",
".-ooooooooooooo.;;;::..                  ..::;;;                  .--=-==o=oo.    .--=-==o=oo.  ",
".=oooooooooooo=.;;;;;;;.                .;;;;;;;                  .--=-==o=oo.    .--=-==o=oo.  ",
".=ooooooooooo==.;;;**..                  ..**;;;                  .--=-==o=oo.    .--.-==o=oo.  ",
".=o=o===o==o===.;**..                      ..**;                  .--=-==o=oo.    .-. .==o.oo.  ",
" .............. *..                          ..*                  .--=-==o=oo.     .   ... ..   ",
" .......           ............     : * *             ......                    @%%@%%%@%@%%@%%@",
".--=---=...       .=---=--=-===.    : * *           ..#$$$$$..                  @@@@@@@@@@@@@@@@",
".-=o=ooooo=.      .o=oooooooooo.    : : *          .#$$$$$$$$$.        &&%%     @@@%@@@@@%@@@@%@",
".=o=ooooooo=.    .o=oooooooooo=.     : *          .###$$$$$$$$.        &&%%     %@@+@@%@@+@@%@+@",
".-=ooooooooo=.  .-=oooooooooooo.     : *          .#####$$$$#$.                 +@@@@@+@@@@@+@@@",
".-ooooooooooo=. .-oooooooooooo=.      *           .####+####+$.                 +++@++@+@++@+++@",
".-oooooooooooo=..-oooooooooooo=.      :           .####@+++++$.           %@    ++++++++++++++++",
".=ooooooooooooo..=oooooooooooo.      : *          .##+#@.%%%..            %@    ++++++++++++++++",
".-oooooooooooo=..-oooooooooooo=.     : *           .#++@%%%%%.                  ++++++++++++++++",
".-oooooooooooo=..-oooooooooooo=.     : *           .##+@%%%%%.         @@++     ++++++++++++++++",
".=oooooooooooo=..=oooooooooooo=.      *            .#######..          @@++     ++++++++++++++++",
".-ooooooooooooo..-ooooooooooooo.      :            .%###$$$%.                   ++++++++++++++++",
".=oooooooooooo=..=oooooooooooo.      : *            .##$$$$.                    ++++++++++++++++",
".=ooooooooooo==..=ooooooooooo.       : *            .;;;;;;.               ::;; ++++++++++++++++",
".=o=o===o==o===..=o=o===o==o=.       : *            .;....;.               ::;; ++++++++++++++++",
" ..............  ............         *             .+.  .+.               ::;; ++++++++++++++++"
};
