/* XPM */
static char *result[] = {
/* columns rows colors chars-per-pixel */
"16 16 5 1 ",
"  c #2E2C3B",
". c #3B77A6",
"X c #2AA4AA",
"o c #41DE95",
"O c None",
/* pixels */
"OOOOOOOOOOOOOOOO",
"OOOOOOOOOOOOOOOO",
"OOOOOOOOOOOOOOOO",
"OOOOOOOOOOOOOOOO",
"OOOOOOOOOOOOOOOO",
"OOOOOOOOOOOOOOOO",
"OOOOOOOOOOOOOOOO",
"OOOOOOOOOOOOOOOO",
"OOOO OOOOOOO OOO",
"OOO X OOOOO X OO",
"OOO X OOOOO X OO",
"OO oX. OOO oX. O",
"OO oX. OOO oX. O",
"O oXXX. O oXXX. ",
"O oXXX. O oXXX. ",
" oXXXXX. oXXXXX."
};
