/* XPM */
static char *result[] = {
/* columns rows colors chars-per-pixel */
"16 16 5 1 ",
"  c #2E2C3B",
". c #3B77A6",
"X c #2AA4AA",
"o c #41DE95",
"O c None",
/* pixels */
" OOOOOOOOOOOOOOO",
"o  OOOOOOOOOOOOO",
"Xoo  OOOOOOOOOOO",
"XXXoo  OOOOOOOOO",
"XXXXXXX OOOOOOOO",
"XXX..  OOOOOOOOO",
"X..  OOOOOOOOOOO",
".  OOOOOOOOOOOOO",
" OOOOOOOOOOOOOOO",
"o  OOOOOOOOOOOOO",
"Xoo  OOOOOOOOOOO",
"XXXoo  OOOOOOOOO",
"XXXXXXX OOOOOOOO",
"XXX..  OOOOOOOOO",
"X..  OOOOOOOOOOO",
".  OOOOOOOOOOOOO"
};
