/* XPM */
static char *result[] = {
/* columns rows colors chars-per-pixel */
"16 16 5 1 ",
"  c #2E2C3B",
". c #3B77A6",
"X c #2AA4AA",
"o c #41DE95",
"O c None",
/* pixels */
"OOOOOOOOOOOOOOO ",
"OOOOOOOOOOOOO  o",
"OOOOOOOOOOO  ooX",
"OOOOOOOOO  ooXXX",
"OOOOOOOO XXXXXXX",
"OOOOOOOOO  ..XXX",
"OOOOOOOOOOO  ..X",
"OOOOOOOOOOOOO  .",
"OOOOOOOOOOOOOOO ",
"OOOOOOOOOOOOO  o",
"OOOOOOOOOOO  ooX",
"OOOOOOOOO  ooXXX",
"OOOOOOOO XXXXXXX",
"OOOOOOOOO  ..XXX",
"OOOOOOOOOOO  ..X",
"OOOOOOOOOOOOO  ."
};
