/* XPM */
static char *result[] = {
/* columns rows colors chars-per-pixel */
"16 16 5 1 ",
"  c #2E2C3B",
". c #61407A",
"X c #8F3DA7",
"o c #EA619D",
"O c None",
/* pixels */
"OOO            O",
"OO XoooXooXoXXX ",
"OO .X.......... ",
"O .X..........X ",
" oX............ ",
" o............X ",
" o............X ",
" X............ O",
" o............X ",
" o............X ",
" X............X ",
" o............. ",
" X............ O",
" X........... OO",
" X.X.XXX.XX.X OO",
"O            OOO"
};
