/* XPM */
static char *result[] = {
/* columns rows colors chars-per-pixel */
"16 16 5 1 ",
"  c #2E2C3B",
". c #61407A",
"X c #8F3DA7",
"o c #EA619D",
"O c None",
/* pixels */
"O              O",
" ooXooXoXX ooXo ",
" oX.X..... oX.X ",
" X.X...... X.X. ",
" oX......X oX.. ",
" X........ X... ",
" o.......X o... ",
" X.X.XXXX  X... ",
"                ",
" ooXoo  oXoo.oX ",
" o.... oX.X.... ",
" X.... X.X..... ",
" o...X oX.....X ",
" o...X o......X ",
" X..XX X...X.XX ",
"O              O"
};
