/* XPM */
static char *result[] = {
/* columns rows colors chars-per-pixel */
"16 16 4 1 ",
"  c #2E2C3B",
". c #C4651C",
"X c #F3C220",
"o c None",
/* pixels */
"               o",
" XXX.XX.XXX.XXX ",
" XX............ ",
" X .......... . ",
" .............. ",
" X............. ",
"               o",
"o XXXXXX ooooooo",
" X..... oooooooo",
" . ... ooooooooo",
" .... oooooooooo",
" ... ooooooooooo",
" .. oooooooooooo",
" . ooooooooooooo",
"  oooooooooooooo",
" ooooooooooooooo"
};
