/* XPM */
static char *result[] = {
/* columns rows colors chars-per-pixel */
"16 16 4 1 ",
"  c #2E2C3B",
". c #C4651C",
"X c #F3C220",
"o c None",
/* pixels */
"o               ",
" XXXX.X.XXX.XXX ",
" XX............ ",
" X .......... . ",
" X............. ",
" X............. ",
"o               ",
"ooooooo XXXXXX o",
"oooooooo .....X ",
"ooooooooo .. .. ",
"oooooooooo .... ",
"ooooooooooo ... ",
"oooooooooooo .. ",
"ooooooooooooo . ",
"oooooooooooooo  ",
"ooooooooooooooo "
};
